<svg xmlns="http://www.w3.org/2000/svg" width="20" height="20" viewBox="0 0 20 20">
  <path id="angry" d="M10,8A10,10,0,1,0,20,18,10,10,0,0,0,10,8Zm0,18.065A8.065,8.065,0,1,1,18.065,18,8.073,8.073,0,0,1,10,26.065Zm0-5.806A4.553,4.553,0,0,0,6.5,21.9a.969.969,0,0,0,1.488,1.242,2.7,2.7,0,0,1,4.024,0A.969.969,0,0,0,13.5,21.9,4.553,4.553,0,0,0,10,20.258Zm-1.935-2.9a.968.968,0,0,0,.278-1.9l-3.226-.968a.968.968,0,1,0-.556,1.855L5.7,16.69a1.244,1.244,0,0,0-.214.669,1.29,1.29,0,1,0,2.581,0Zm8.024-2.214a.967.967,0,0,0-1.206-.649l-3.226.968a.968.968,0,0,0,.278,1.9,1.29,1.29,0,1,0,2.581,0,1.244,1.244,0,0,0-.214-.669l1.137-.343a.963.963,0,0,0,.649-1.2Z" transform="translate(0 -8)" fill="#6b6b6b"/>
</svg>
