<svg xmlns="http://www.w3.org/2000/svg" width="15.994" height="13.994" viewBox="0 0 15.994 13.994">
  <path id="camera" d="M15.994,35.5v9a1.5,1.5,0,0,1-1.5,1.5H1.5a1.5,1.5,0,0,1-1.5-1.5v-9A1.5,1.5,0,0,1,1.5,34H4.248l.384-1.028A1.5,1.5,0,0,1,6.035,32h3.92a1.5,1.5,0,0,1,1.4.971L11.745,34h2.749A1.5,1.5,0,0,1,15.994,35.5ZM11.745,40A3.748,3.748,0,1,0,8,43.745,3.751,3.751,0,0,0,11.745,40Zm-1,0A2.749,2.749,0,1,1,8,37.248,2.753,2.753,0,0,1,10.746,40Z" transform="translate(0 -32)" fill="#fff" opacity="0.7"/>
</svg>
