<svg xmlns="http://www.w3.org/2000/svg" width="30" height="40" viewBox="0 0 30 40">
  <path id="file-upload" d="M17.5,10.625V0H1.875A1.871,1.871,0,0,0,0,1.875v36.25A1.871,1.871,0,0,0,1.875,40h26.25A1.871,1.871,0,0,0,30,38.125V12.5H19.375A1.881,1.881,0,0,1,17.5,10.625ZM22.592,27.5H17.5v6.25A1.25,1.25,0,0,1,16.25,35h-2.5a1.25,1.25,0,0,1-1.25-1.25V27.5H7.408a1.25,1.25,0,0,1-.88-2.137l7.533-7.477a1.332,1.332,0,0,1,1.878,0l7.533,7.477A1.25,1.25,0,0,1,22.592,27.5ZM29.453,8.2,21.8.547A1.874,1.874,0,0,0,20.477,0H20V10H30V9.523A1.869,1.869,0,0,0,29.453,8.2Z"/>
</svg>
