<svg xmlns="http://www.w3.org/2000/svg" width="20" height="20" viewBox="0 0 20 20">
  <path id="laugh-beam" d="M10,8A10,10,0,1,0,20,18,10,10,0,0,0,10,8Zm5.7,15.7A8.06,8.06,0,1,1,18.065,18,8.01,8.01,0,0,1,15.7,23.7Zm-2.476-9.9c-.96,0-2.125,1.181-2.258,2.879a.321.321,0,0,0,.6.181l.383-.685a1.508,1.508,0,0,1,1.27-.871,1.508,1.508,0,0,1,1.27.871l.383.685a.322.322,0,0,0,.6-.181C15.351,14.988,14.185,13.806,13.226,13.806Zm-8.1,3.06.383-.685a1.508,1.508,0,0,1,1.27-.871,1.508,1.508,0,0,1,1.27.871l.383.685a.322.322,0,0,0,.6-.181c-.133-1.7-1.3-2.879-2.258-2.879s-2.125,1.181-2.258,2.879a.326.326,0,0,0,.609.181Zm9.492,2.423H5.387a.541.541,0,0,0-.544.6,4.895,4.895,0,0,0,4.883,4.234h.548A4.895,4.895,0,0,0,15.157,19.9a.541.541,0,0,0-.544-.6Z" transform="translate(0 -8)" fill="#6b6b6b"/>
</svg>
