<svg xmlns="http://www.w3.org/2000/svg" width="32.165" height="25" viewBox="0 0 32.165 25"><path d="M27.309,48.007v8a1.337,1.337,0,0,1-1.34,1.34H19.491a.672.672,0,0,1-.67-.67V50.425a.672.672,0,0,0-.67-.67H14.129a.672.672,0,0,0-.67.67V56.68a.672.672,0,0,1-.67.67H6.311a1.337,1.337,0,0,1-1.34-1.34v-8a.671.671,0,0,1,.246-.519l10.5-8.645a.681.681,0,0,1,.854,0l10.5,8.645a.684.684,0,0,1,.24.519Zm4.669-3.4-4.669-3.848V33.023a.672.672,0,0,0-.67-.67H23.512a.672.672,0,0,0-.67.67v4.055l-5-4.116a2.678,2.678,0,0,0-3.407,0L.3,44.606a.672.672,0,0,0-.089.944l1.424,1.731a.672.672,0,0,0,.944.089L15.716,36.553a.681.681,0,0,1,.854,0L29.705,47.37a.672.672,0,0,0,.944-.089l1.424-1.731A.672.672,0,0,0,31.978,44.606Z" transform="translate(-0.059 -32.35)" fill="#6b6b6b"/></svg>